<svg xmlns="http://www.w3.org/2000/svg" viewBox="0 0 512 512">
  <defs>
    <linearGradient id="bg" x1="0" y1="0" x2="1" y2="1">
      <stop offset="0%" stop-color="#121316"/>
      <stop offset="100%" stop-color="#0B0B0C"/>
    </linearGradient>
    <linearGradient id="gold" x1="0" y1="0" x2="0" y2="1">
      <stop offset="0%" stop-color="#F5C542"/>
      <stop offset="100%" stop-color="#D4A832"/>
    </linearGradient>
  </defs>
  <rect width="512" height="512" rx="96" fill="url(#bg)"/>
  <!-- "B" as vector path — renders identically on all platforms -->
  <path fill="url(#gold)" d="
    M168 108 h120 q40 0 66 22 q26 22 26 58 q0 30 -16 48 q-14 16 -38 22 v2
    q30 6 48 28 q18 22 18 54 q0 42 -30 66 q-30 24 -78 24 H168 Z
    M220 244 h60 q24 0 38 -14 q14 -14 14 -36 q0 -22 -14 -36 q-14 -14 -38 -14 h-60 Z
    M220 384 h68 q28 0 44 -16 q16 -16 16 -40 q0 -24 -16 -40 q-16 -16 -44 -16 h-68 Z
  "/>
</svg>
