<svg
  xmlns="http://www.w3.org/2000/svg"
  viewBox="0 0 512 512"
  fill="none"
>
  <defs>
    <linearGradient id="navy" x1="54" x2="376" y1="38" y2="368" gradientUnits="userSpaceOnUse">
      <stop stop-color="#54729E" />
      <stop offset="0.48" stop-color="#1F3F71" />
      <stop offset="1" stop-color="#0D2347" />
    </linearGradient>
    <linearGradient id="gold" x1="118" x2="438" y1="54" y2="402" gradientUnits="userSpaceOnUse">
      <stop stop-color="#F4D98C" />
      <stop offset="0.48" stop-color="#C99A3F" />
      <stop offset="1" stop-color="#8C6120" />
    </linearGradient>
    <linearGradient id="shadow" x1="256" x2="256" y1="36" y2="478" gradientUnits="userSpaceOnUse">
      <stop stop-color="#0B1730" stop-opacity="0.14" />
      <stop offset="1" stop-color="#0B1730" stop-opacity="0" />
    </linearGradient>
  </defs>

  <g>
    <path
      d="M255.999 72c-21.245 0-38.471 17.226-38.471 38.471s17.226 38.47 38.471 38.47c21.245 0 38.471-17.225 38.471-38.47S277.244 72 255.999 72Z"
      fill="url(#navy)"
    />

    <path
      d="M138.196 120.017c24.692-23.679 62.281-46.055 121.758-46.055 37.901 0 69.998 9.343 95.82 22.18l-8.85 22.191c-22.626-9.554-49.334-16.987-87.737-16.987-41.227 0-72.516 8.63-95.964 20.947-9.184 4.822-16.984 9.888-23.816 14.839l-1.211-17.115Z"
      fill="url(#navy)"
    />
    <path
      d="M298.084 73.962c30.941 3.228 57.96 12.58 80.372 26.165 7.579 4.595 14.636 9.6 21.232 14.81v19.998c-10.853-8.157-23.123-15.662-37.532-22.074-16.204-7.214-34.469-12.752-54.656-15.91l-9.416-22.989Z"
      fill="url(#gold)"
    />

    <path
      d="M111.455 151.289c22.137 29.514 53.425 55.79 92.59 73.271 23.572 10.522 43.095 16.18 54.232 19.029l15.676 4.008-12.417 17.468c-11.988-2.165-35.434-7.83-64.319-19.172-45.012-17.679-79.76-43.846-104.657-74.888l18.895-19.716Z"
      fill="url(#navy)"
    />
    <path
      d="M136.884 192.901c30.232 18.508 64.689 33.173 102.654 40.95 7.146 1.464 13.427 2.577 18.694 3.388l-16.437 23.26c-10.073-1.81-22.43-4.567-36.762-8.664-33.228-9.5-61.935-22.89-85.549-37.11l17.4-21.824Z"
      fill="url(#gold)"
    />
    <path
      d="M162.429 232.37c31.143 15.092 61.792 25.973 90.542 31.812l-15.654 22.178c-25.433-5.703-51.337-14.895-76.912-27.338l2.024-26.652Z"
      fill="url(#gold)"
    />

    <path
      d="M404.342 150.791c-21.76 29.82-52.288 56.462-90.526 74.402-23.352 10.962-42.714 17.138-53.764 20.197l-15.551 4.306 12.748 17.229c11.945-2.393 35.277-8.504 63.948-20.396 44.677-18.547 78.911-45.382 103.206-76.896l-20.061-18.842Z"
      fill="url(#gold)"
    />
    <path
      d="M379.648 191.189c-30.078 19.049-64.269 34.334-102.088 42.795-7.118 1.593-13.378 2.82-18.628 3.725l16.856 22.943c10.039-1.991 22.345-4.971 36.599-9.325 33.048-10.091 61.508-23.993 84.849-38.631l-17.588-21.507Z"
      fill="url(#navy)"
    />
    <path
      d="M354.512 230.898c-31.08 15.641-61.533 27.062-90.171 33.409l16.044 21.899c25.323-6.152 51.062-15.801 76.453-28.688l-2.326-26.62Z"
      fill="url(#navy)"
    />

    <path
      d="M258.947 184.304c25.198 0 46.818 8.454 62.738 20.494-35.839 26.495-62.4 57.916-80.279 97.541-15.651 34.682-24.115 74.435-27.728 112.664h-31.456c3.532-50.73 14.808-95.851 35.192-132.795 12.802-23.198 28.415-42.659 41.533-58.327-1.554-13.251-1.694-26.253 0-39.577Z"
      fill="url(#gold)"
    />
    <path
      d="M255.007 183.848c-17.871 16.124-34.502 35.848-48.814 59.853-25.515 42.799-41.228 92.184-47.037 145.913 6.347 23.487 23.641 40.893 46.547 48.074 5.215-61.857 19.188-112.119 41.824-153.384 13.543-24.683 30.25-46.507 48.772-66.972-12.372-19.407-28.805-31.559-41.292-33.484Z"
      fill="url(#navy)"
    />

    <path
      d="M255.982 198.267c45.521 34.997 69.219 84.179 76.995 164.167 3.301 33.957 3.094 58.383 2.406 75.1-11.041 6.952-24.098 10.981-38.112 10.981h-1.911c1.09-19.129 1.072-42.874-1.349-72.437-5.455-66.575-20.371-118.863-50.962-160.868 2.512-5.598 7.052-12.097 12.933-16.943Z"
      fill="url(#gold)"
    />

    <path
      d="M117.5 320.014c0 53.69 31.552 102.751 80.654 125.531l11.581-22.843c-38.518-17.871-63.375-56.198-63.375-102.688v-1.496l-28.86 1.496Z"
      fill="url(#navy)"
    />
    <path
      d="M394.502 318.591c0 53.69-31.552 102.75-80.655 125.531l-11.58-22.843c38.517-17.872 63.375-56.198 63.375-102.689v-1.495l28.86 1.496Z"
      fill="url(#gold)"
    />

    <path
      d="M256 55c-90.186 0-163.319 73.134-163.319 163.319 0 90.187 73.133 163.32 163.319 163.32s163.319-73.133 163.319-163.32C419.319 128.134 346.186 55 256 55Zm0 24c76.931 0 139.319 62.389 139.319 139.319 0 76.931-62.388 139.32-139.319 139.32-76.931 0-139.319-62.389-139.319-139.32C116.681 141.389 179.069 79 256 79Z"
      fill="url(#shadow)"
    />
  </g>
</svg>
